<?xml version="1.0" encoding="UTF-8" standalone="no"?>
<!DOCTYPE svg PUBLIC "-//W3C//DTD SVG 20010904//EN" "http://www.w3.org/TR/2001/REC-SVG-20010904/DTD/svg10.dtd">
<svg version="1.0" xmlns="http://www.w3.org/2000/svg" width="1056.000000pt" height="1008.000000pt" viewBox="0 0 1056.000000 1008.000000" preserveAspectRatio="xMidYMid meet">

<style>.fc { fill: #818cf8; } @media (prefers-color-scheme: light) { .fc { fill: #4f46e5; } }</style>
<g class="fc" transform="translate(0.000000,1008.000000) scale(0.100000,-0.100000)" stroke="none">

<path d="M5079 9971 c-95 -59 -217 -134 -269 -167 l-95 -60 -3 -67 -3 -66 41 -21 40 -21 -2 -306 -3 -307 -255 -98 c-263 -101 -612 -235 -1115 -428 -159 -61 -296 -118 -302 -127 -9 -11 -13 -56 -13 -134 0 -102 -2 -118 -17 -124 -10 -4 -65 -24 -123 -45 -58 -21 -113 -41 -122 -45 -16 -6 -18 -22 -18 -117 0 -60 -4 -118 -10 -128 -6 -12 -61 -35 -165 -70 l-155 -52 0 -208 0 -209 53 -16 c28 -8 68 -18 87 -21 28 -4 293 80 1322 420 707 234 1295 426 1304 426 10 0 167 -49 349 -109 1694 -561 2245 -741 2260 -741 26 0 138 31 153 43 14 11 18 382 4 404 -4 7 -77 37 -162 67 l-155 54 -3 125 -3 125 -127 46 c-70 25 -134 50 -142 55 -12 6 -16 37 -20 136 l-5 128 -515 198 c-283 109 -660 254 -837 321 l-323 123 0 311 0 312 35 12 35 12 0 68 c0 60 -3 71 -22 85 -61 44 -441 280 -504 313 -17 9 -45 -5 -195 -97z m106 -371 l0 -105 -45 -22 c-79 -39 -80 -38 -80 86 l0 109 48 20 c76 33 77 32 77 -88z m228 85 l37 -15 0 -110 c0 -71 -4 -110 -11 -110 -6 0 -33 10 -60 21 l-49 21 0 110 c0 124 -4 120 83 83z m-405 -156 l-3 -111 -53 -20 c-29 -11 -55 -18 -57 -16 -7 7 -7 209 0 216 9 10 87 41 103 41 10 1 12 -25 10 -110z m587 82 l30 -17 3 -107 c2 -73 -1 -107 -8 -107 -6 0 -34 10 -61 21 l-49 21 0 110 0 110 28 -7 c15 -3 41 -14 57 -24z m-405 -299 c0 -53 -4 -102 -8 -109 -8 -13 -90 -52 -110 -53 -10 0 -12 26 -10 112 l3 112 55 22 c30 12 58 20 63 17 4 -2 7 -48 7 -101z m223 77 l37 -19 0 -110 c0 -61 -2 -110 -4 -110 -2 0 -29 10 -60 21 l-56 22 0 114 c0 129 -4 125 83 82z m-403 -155 l0 -105 -55 -25 c-31 -13 -58 -24 -60 -24 -3 0 -5 51 -5 114 l0 113 53 20 c28 12 55 19 60 16 4 -2 7 -51 7 -109z m580 87 l35 -16 3 -114 c3 -127 11 -118 -75 -83 l-43 17 0 113 c0 128 -5 123 80 83z"/><path d="M4905 7680 c-115 -37 -367 -119 -560 -180 -192 -62 -552 -177 -800 -257 -247 -80 -550 -177 -672 -216 l-223 -72 3 -2609 2 -2610 205 -88 c113 -49 314 -136 447 -193 132 -58 244 -105 247 -105 3 0 6 592 6 1316 l0 1316 78 -6 c42 -4 304 -22 582 -41 278 -19 535 -37 573 -41 l67 -6 0 526 0 526 -52 0 c-29 0 -303 -11 -608 -25 -305 -14 -574 -25 -598 -25 l-42 0 2 707 3 706 585 128 c322 70 675 147 785 171 l200 44 3 552 c2 439 0 552 -10 551 -7 0 -107 -31 -223 -69z"/>
<path d="M5848 7550 c-248 -63 -427 -356 -468 -765 -8 -78 -10 -852 -8 -2635 l3 -2525 27 -109 c15 -60 37 -134 49 -165 115 -308 327 -447 587 -386 77 18 1209 510 1306 567 227 134 414 426 487 762 30 134 37 309 31 719 -4 328 -7 367 -21 366 -9 0 -176 -35 -371 -77 l-355 -77 -5 -430 -5 -430 -25 -49 c-14 -27 -38 -59 -55 -72 -16 -12 -102 -47 -190 -77 -88 -31 -218 -76 -289 -101 -70 -25 -144 -46 -163 -46 -43 0 -87 41 -102 96 -8 27 -11 656 -11 2140 0 2268 -2 2160 50 2227 36 46 64 44 375 -28 160 -37 302 -74 317 -81 27 -14 67 -61 84 -99 5 -11 11 -211 14 -445 l5 -425 85 -13 c211 -31 655 -89 660 -85 10 10 12 845 1 955 -20 207 -86 408 -183 558 -54 84 -199 228 -264 263 -28 15 -347 126 -709 248 -607 204 -665 222 -739 225 -45 2 -98 -1 -118 -6z"/>

<path d="M2582 1525 c-40 -18 -77 -36 -83 -42 -6 -6 -8 -62 -7 -133 l3 -124 120 -53 c66 -30 260 -115 430 -190 171 -74 366 -160 435 -190 69 -31 175 -77 235 -103 61 -27 187 -82 280 -123 1185 -521 1245 -547 1261 -547 8 0 153 60 322 134 457 200 1088 477 1422 624 162 71 441 194 620 272 179 78 342 151 363 161 l37 19 0 129 0 128 -71 32 c-40 17 -80 31 -90 31 -21 0 -2 8 -1913 -824 -373 -163 -684 -296 -692 -296 -7 0 -75 27 -151 61 -76 34 -226 99 -333 146 -107 47 -244 107 -305 133 -255 112 -1627 708 -1735 755 l-75 32 -73 -32z"/></g>
</svg>